<svg viewBox="0 0 81 81" fill="none" xmlns="http://www.w3.org/2000/svg">
<g clip-path="url(#clip0_119_364)">
<path d="M51.4615 5.63876H9.5625V49.3723H26.7819V48.5386H41.957V31.6534H26.7819V21.0218H52.5886V48.9544C63.1368 46.9956 71.1003 37.7806 71.1003 26.6903V25.2737C71.0984 14.436 62.3011 5.63876 51.4615 5.63876Z" fill="#D047DF"/>
<path d="M52.5886 31.8633V59.1703H26.7819V48.5386H41.957V31.6534H9.5625V74.6368H52.5886C62.8861 74.1238 71.1003 65.5928 71.1003 55.1671V53.1655C71.1003 42.2832 63.0532 33.3208 52.5886 31.8614V31.8633Z" fill="#6C3BFF"/>
<path d="M52.5886 59.1431H26.7819V74.6388H52.5886V59.1431Z" fill="#9975FF"/>
<path d="M52.5886 31.8633V59.1703H26.7819V48.5386H41.957V31.6534H9.5625V74.6368H52.5886C62.8861 74.1238 71.1003 65.5928 71.1003 55.1671V53.1655C71.1003 42.2832 63.0532 33.3208 52.5886 31.8614V31.8633Z" fill="#6C3BFF"/>
<path d="M51.4615 5.63876H26.7799V21.1908H52.5866V5.6718C52.2155 5.65042 51.8404 5.63876 51.4615 5.63876Z" fill="#EE9AFF"/>
<path d="M52.5886 59.1431H26.7819V74.6388H52.5886V59.1431Z" fill="#9975FF"/>
</g>
<defs>
<clipPath id="clip0_119_364">
<rect width="62" height="70" fill="white" transform="translate(9.5625 5.13876)"/>
</clipPath>
</defs>
</svg>
