<svg width="16" height="15" viewBox="0 0 16 15" fill="none" xmlns="http://www.w3.org/2000/svg">
<path d="M6.56242 13.1251C10.1868 13.1251 13.125 10.187 13.125 6.56255C13.125 2.93812 10.1868 0 6.56242 0C2.93799 0 -0.000159264 2.93815 -0.000159264 6.56258C-0.000159264 10.187 2.93802 13.1251 6.56242 13.1251ZM6.56242 1.87503C9.15129 1.87503 11.25 3.97371 11.25 6.56258C11.25 9.15145 9.15129 11.2501 6.56242 11.2501C3.97355 11.2501 1.87487 9.15145 1.87487 6.56258C1.87487 3.97371 3.97358 1.87503 6.56242 1.87503Z" fill="#8C98AB"/>
<path d="M14.0639 15C14.3131 15.0014 14.5526 14.9036 14.7295 14.7281C15.0971 14.3634 15.0996 13.7699 14.7349 13.4022C14.7331 13.4004 14.7313 13.3986 14.7295 13.3968L11.2045 9.87179C10.8239 9.50415 10.2174 9.51465 9.84977 9.89521C9.48213 10.2758 9.49264 10.8823 9.87319 11.2499L13.3983 14.7281C13.5752 14.9036 13.8147 15.0014 14.0639 15Z" fill="#8C98AB"/>
</svg>
